<?xml version="1.0" encoding="utf-8"?>
<!-- Generator: Adobe Illustrator 16.0.0, SVG Export Plug-In . SVG Version: 6.00 Build 0)  -->
<!DOCTYPE svg PUBLIC "-//W3C//DTD SVG 1.1//EN" "http://www.w3.org/Graphics/SVG/1.1/DTD/svg11.dtd">
<svg version="1.1" id="Layer_1" xmlns="http://www.w3.org/2000/svg" xmlns:xlink="http://www.w3.org/1999/xlink" x="0px" y="0px"
	 width="588.405px" height="305.797px" viewBox="0 0 588.405 305.797" enable-background="new 0 0 588.405 305.797"
	 xml:space="preserve">
<g>
	<path fill="none" stroke="#FFFFFF" stroke-miterlimit="10" d="M71.354,250.479"/>
	<path fill="#F16B24" stroke="#FFFFFF" stroke-miterlimit="10" d="M161.226,174.523c1.095-4.407-1.351-8.398-4.897-11.153
		c-4.982-3.877-18.338-14.387-23.757-16.98c-2.565-1.235-4.609-20.985-10.405-33.098c-6.044-12.623-8.027-9.335-9.555-7.99
		c-1.404,1.23-1.769,37.024,2.207,46.476c1.953,4.654,24.959,36.253,34.699,31.515C144.012,185.864,160.125,178.896,161.226,174.523
		z"/>
	<path fill="#F16B24" stroke="#FFFFFF" stroke-miterlimit="10" d="M77.781,199.548c5.107,48.299,15.891,86.342,24.375,85.489
		c8.5-0.844,11.514-40.27,6.947-88.622L77.781,199.548z"/>
	<path fill="#FFFFFF" stroke="#F16B24" stroke-miterlimit="10" d="M157.625,83.454c-8.289,11.799-24.572,14.648-36.367,6.358
		c-11.803-8.289-14.646-24.577-6.359-36.372c8.291-11.8,24.572-14.646,36.372-6.354C163.07,55.376,165.914,71.655,157.625,83.454z"
		/>
	<path fill="#FFFFFF" stroke="#F16B24" stroke-miterlimit="10" d="M105.412,214.852c22.517-59.052,30.113-110.44,16.834-115.609
		c-13.273-5.173-42.438,37.818-65.793,96.539L105.412,214.852z"/>
	<path fill="#FFFFFF" stroke="#F16B24" stroke-miterlimit="10" d="M57.196,192.814c-2.116,2.795-3.021,6.161-4.473,9.343
		c-3.911-1.421-4.661-5.617-6.827-8.648c-2.494-3.491-5.691-5.598-9.625-7.283c-3.305-1.417-9.244-3.878-12.547-1.541
		c-3.979,2.812-1.896,9.356-0.922,13.236c3.325,13.228,7.976,32.107,22.227,36.926c5.777,1.957,12.184,5.366,17.826,2.438
		c6.674-3.47,23.184-22.825,18.635-30.091c-2.16-3.44-11.195-6.694-14.713-8.803C63.664,196.527,60.455,194.41,57.196,192.814z"/>
	<path fill="#FFFFFF" stroke="#F16B24" stroke-miterlimit="10" d="M68.475,168.78c4.496-0.63,7.286-4.393,8.512-8.715
		c1.731-6.076,6.473-22.393,6.854-28.382c0.184-2.846,17.738-12.13,26.799-22.041c9.439-10.328,5.646-10.938,3.83-11.849
		c-1.666-0.843-34.996,12.212-42.271,19.437c-3.586,3.555-24.271,36.721-16.238,43.974C51.518,157.063,64.01,169.399,68.475,168.78z
		"/>
	<path fill="none" stroke="#F16B24" stroke-width="3" stroke-miterlimit="10" d="M83.23,139.46
		c9.834,8.492,25.641,16.934,40.936,14.077"/>
	<g>
		<path fill="#FFFFFF" d="M131.931,174.597c0.009-0.013-0.097-0.046-0.202-0.245c-0.104-0.191-0.199-0.515-0.186-0.918
			c0.004-0.808,0.295-1.904,0.826-3.09c1.03-2.402,3.012-5.197,5.354-7.639c2.352-2.43,5.072-4.55,7.559-5.562
			c0.614-0.264,1.227-0.438,1.804-0.513c0.569-0.079,1.173-0.023,1.571,0.283c0.406,0.3,0.43,0.69,0.448,0.881
			c0.005,0.21-0.014,0.314-0.014,0.314s-0.052-0.091-0.15-0.263c-0.099-0.158-0.298-0.373-0.556-0.401
			c-0.508-0.08-1.336,0.457-2.233,1.186c-1.786,1.522-4.034,3.839-6.269,6.155c-2.237,2.317-4.462,4.658-6.059,6.465
			c-0.777,0.915-1.397,1.7-1.701,2.31c-0.147,0.302-0.23,0.562-0.23,0.741C131.878,174.484,131.943,174.601,131.931,174.597z"/>
	</g>
</g>
<g>
	<path fill="#FFFFFF" stroke="#F16B24" stroke-miterlimit="10" d="M311.278,194.636c0.39,52.573,6.607,94.692,14.108,94.672
		c7.513-0.017,13.488-42.173,13.581-94.749L311.278,194.636z"/>
	<path fill="#FFFFFF" stroke="#F16B24" stroke-miterlimit="10" d="M333.929,53.796c-3.131,13.82-16.883,22.482-30.703,19.346
		c-13.822-3.137-22.483-16.885-19.344-30.708c3.134-13.821,16.881-22.485,30.707-19.344
		C328.405,26.226,337.066,39.974,333.929,53.796z"/>
	<path fill="#FFFFFF" stroke="#F16B24" stroke-miterlimit="10" d="M338.991,195.792c-1.649-66.025-14.68-118.728-29.566-118.465
		c-14.885,0.266-26.043,53.399-25.344,119.442L338.991,195.792z"/>
	<path fill="#FFFFFF" stroke="#F16B24" stroke-miterlimit="10" d="M266.411,188.886c4.719-3.039,6.884-8.98,7.237-14.8
		c0.5-8.183,17.443-61.19,25.002-77.708c7.872-17.207,3.614-17.437,1.465-16.194c-5.812,3.363-14.255,15.557-22.576,30.55
		c-16.868,30.384-40.06,67.227-26.349,75.376C245.463,183.375,261.729,191.886,266.411,188.886z"/>
	<path fill="#FFFFFF" stroke="#F16B24" stroke-miterlimit="10" d="M283.854,196.775c0.38,50.758,6.6,91.429,14.103,91.406
		c7.511-0.022,13.484-40.723,13.587-91.48L283.854,196.775z"/>
	<path fill="#FFFFFF" stroke="#F16B24" stroke-miterlimit="10" d="M352.368,188.886c-4.72-3.039-6.886-8.98-7.237-14.8
		c-0.5-8.183-17.443-61.19-25.002-77.708c-7.872-17.207-3.614-17.437-1.465-16.194c5.812,3.363,14.255,15.557,22.576,30.55
		c16.868,30.384,40.059,67.227,26.349,75.376C373.315,183.375,357.051,191.886,352.368,188.886z"/>
</g>
<g>
	
		<ellipse transform="matrix(0.2182 0.9759 -0.9759 0.2182 267.4086 -238.7679)" fill="#F16B24" cx="282.729" cy="47.516" rx="1.956" ry="1.146"/>
	<g>
		<g>
			<path fill="none" stroke="#F16B24" stroke-width="3" stroke-miterlimit="10" d="M281.563,43.89
				c0.293,0.114,22.977,0.381,24.79,0.33c-0.156,3.566,0.463,7.853-0.899,10c-3.932,6.196-13.199,7.692-18.178,2.75
				c-2.5-2.482-3.287-7.867-3.048-12.525"/>
			<path fill="#F16B24" d="M281.827,42.814c-0.234,0-0.913-0.051-1.13-0.006c-0.084,1.012,0.465,2.021,1.318,2.672
				c0.522,0.398,2.103,3.07,2.872,3.645c0.089-0.547-0.873-3.427-0.974-4c-0.06-0.363,0.035-1.124-0.194-1.423
				c-0.268-0.346-0.992-0.402-1.367-0.655"/>
			<path fill="none" stroke="#F16B24" stroke-width="3" stroke-miterlimit="10" d="M336.231,44.222
				c-0.293,0.115-22.98,0.113-24.793,0.034c0.108,3.729-0.561,8.198,0.775,10.456c3.853,6.52,13.099,8.199,18.14,3.098
				c2.534-2.561,3.388-8.173,3.204-13.042"/>
			<path fill="#F16B24" d="M335.986,43.196c0.232,0.002,0.914-0.039,1.13,0.008c0.068,1.014-0.491,2.016-1.354,2.657
				c-0.525,0.393-2.137,3.044-2.916,3.609c-0.081-0.546,0.915-3.417,1.021-3.986c0.066-0.363-0.016-1.125,0.216-1.42
				c0.27-0.344,0.994-0.391,1.373-0.639"/>
			<path fill="none" stroke="#F16B24" stroke-width="3" stroke-miterlimit="10" d="M306.332,47.11
				c0.997-1.11,4.038-1.046,5.047,0.03"/>
		</g>
		
			<ellipse transform="matrix(0.9998 0.0192 -0.0192 0.9998 0.982 -5.4993)" fill="#F16B24" cx="287.128" cy="48.435" rx="5.421" ry="2.044"/>
		<path fill="#FFFFFF" d="M288.531,48.524c-0.014,0.451-0.827,0.792-1.821,0.762c-0.988-0.03-1.781-0.422-1.768-0.874
			c0.014-0.451,0.829-0.793,1.82-0.761C287.753,47.681,288.545,48.073,288.531,48.524z"/>
		
			<rect x="289.368" y="47.002" transform="matrix(0.9997 0.0229 -0.0229 0.9997 1.1882 -6.7191)" fill="none" stroke="#F16B24" stroke-width="0.5" stroke-miterlimit="10" width="9.754" height="3.134"/>
		
			<rect x="296.594" y="47.166" transform="matrix(0.9999 0.013 -0.013 0.9999 0.6578 -3.8578)" fill="#F16B24" width="1.052" height="3.028"/>
	</g>
</g>
<g>
	<path fill="#FFFFFF" stroke="#F16B24" stroke-miterlimit="10" d="M510.853,192.863c0.391,52.573,6.609,94.692,14.109,94.672
		c7.513-0.017,13.487-42.173,13.582-94.749L510.853,192.863z"/>
	<path fill="#FFFFFF" stroke="#F16B24" stroke-miterlimit="10" d="M533.504,52.023c-3.131,13.82-16.883,22.483-30.703,19.346
		c-13.823-3.137-22.484-16.885-19.344-30.708c3.135-13.82,16.881-22.485,30.708-19.344C527.98,24.453,536.644,38.2,533.504,52.023z"
		/>
	<path fill="#FFFFFF" stroke="#F16B24" stroke-miterlimit="10" d="M538.566,194.018C536.916,127.993,523.888,75.29,509,75.553
		c-14.885,0.266-26.043,53.399-25.344,119.442L538.566,194.018z"/>
	<path fill="#FFFFFF" stroke="#F16B24" stroke-miterlimit="10" d="M526.235,43.95c-2.623,3.957-1.605,8.745,0.924,12.699
		c3.559,5.56,13.043,20.575,17.471,25.018c2.102,2.116-18.702,3.317-23.025,6.807c-1.325,1.07,3.255,8.755,4.026,10.471
		c5.434,12.069,38.921-6.929,38.376-16.381c-0.303-5.265-11.938-44.423-23.178-43.163C547.146,38.794,528.846,40.029,526.235,43.95z
		"/>
	<path fill="#FFFFFF" stroke="#F16B24" stroke-miterlimit="10" d="M483.43,195.001c0.38,50.758,6.6,91.43,14.103,91.406
		c7.512-0.022,13.483-40.723,13.586-91.48L483.43,195.001z"/>
	<path fill="#FFFFFF" stroke="#F16B24" stroke-miterlimit="10" d="M491.894,43.95c2.622,3.957,1.604,8.745-0.924,12.699
		c-3.559,5.56-13.043,20.575-17.472,25.018c-2.102,2.116,18.703,3.317,23.026,6.807c1.325,1.07-3.255,8.755-4.027,10.471
		c-5.434,12.069-38.92-6.929-38.375-16.381c0.303-5.265,11.938-44.423,23.177-43.163C470.982,38.794,489.283,40.029,491.894,43.95z"
		/>
	<g>
		<path fill="#FFFFFF" stroke="#F16B24" stroke-miterlimit="10" d="M528.557,63.683c-0.003,1.524-1.24,2.757-2.765,2.757
			l-34.659-0.042c-1.523-0.002-2.758-1.24-2.757-2.766l0.025-21.623c0.005-1.525,1.238-2.758,2.765-2.756l34.659,0.042
			c1.527,0.002,2.76,1.238,2.76,2.765L528.557,63.683z"/>
		<circle fill="#F16B24" stroke="#FFFFFF" stroke-miterlimit="10" cx="509.016" cy="53.306" r="9.586"/>
		<circle fill="#FFFFFF" stroke="#F16B24" stroke-miterlimit="10" cx="509.017" cy="53.307" r="4.583"/>
		<circle fill="#F16B24" stroke="#FFFFFF" stroke-miterlimit="10" cx="509.017" cy="53.307" r="3.417"/>
		<path fill="#F16B24" stroke="#FFFFFF" stroke-miterlimit="10" d="M497.064,43.707c-0.002,1.272-1.032,2.3-2.303,2.297
			l-1.724-0.001c-1.272-0.002-2.299-1.03-2.301-2.302l0,0c0.002-1.271,1.035-2.299,2.305-2.299l1.726,0.003
			C496.038,41.407,497.066,42.437,497.064,43.707L497.064,43.707z"/>
	</g>
</g>
</svg>
